<svg width="213" height="109" viewBox="0 0 213 109" xmlns="http://www.w3.org/2000/svg">
    <title>
        onHover
    </title>
    <g fill="none" fill-rule="evenodd">
        <g fill="#F0F0EC">
            <path d="M157.837 23.552l-13.963 71.833c-.16.82.373 1.608 1.192 1.767l53.209 10.343c.82.16 1.607-.372 1.766-1.189l11.023-56.708c.084-.434-.078-1.27-.32-1.64l-11.18-17.194c-.232-.355-.915-.815-1.334-.897l-38.635-7.51a1.5 1.5 0 0 0-1.758 1.195zm-1.472-.287a3 3 0 0 1 3.517-2.38l38.635 7.51c.818.159 1.852.857 2.304 1.552l11.181 17.193c.454.698.693 1.93.534 2.745l-11.023 56.707a3.003 3.003 0 0 1-3.524 2.375l-53.21-10.342a3.004 3.004 0 0 1-2.377-3.527l13.963-71.833z"/>
            <path d="M157.837 23.552l-13.963 71.833c-.16.82.373 1.608 1.192 1.767l53.209 10.343c.82.16 1.607-.372 1.766-1.189l11.023-56.708c0-.003-12.61-2.46-12.61-2.46a3.509 3.509 0 0 1-2.772-4.11l2.558-13.158c0-.003-38.645-7.513-38.645-7.513a1.5 1.5 0 0 0-1.758 1.195zm-1.472-.287a3 3 0 0 1 3.517-2.38l38.635 7.51a1.5 1.5 0 0 1 1.195 1.761l-2.557 13.158a2.009 2.009 0 0 0 1.585 2.352l12.603 2.45a1.51 1.51 0 0 1 1.193 1.769l-11.023 56.707a3.003 3.003 0 0 1-3.524 2.375l-53.21-10.342a3.004 3.004 0 0 1-2.377-3.527l13.963-71.833z"/>
        </g>
        <path d="M166.99 75.683l19 3.693 3.69-18.986-19-3.693-3.69 18.986zm1.318-22.504l24.89 4.838-4.836 24.877-24.89-4.838 4.836-24.877z" fill="#F58D24"/>
        <g fill="#F0F0EC">
            <path d="M2.133 34.469l13.963 71.833c.16.82.948 1.351 1.767 1.192l53.209-10.343c.82-.159 1.351-.947 1.192-1.764L61.241 38.68c-.084-.435-.548-1.148-.91-1.402L43.523 25.525c-.347-.242-1.154-.413-1.572-.332l-38.635 7.51a1.5 1.5 0 0 0-1.183 1.766zm-1.472.286A3 3 0 0 1 3.03 31.23l38.635-7.51c.818-.159 2.038.101 2.717.576L61.191 36.05c.682.477 1.364 1.53 1.523 2.345L73.737 95.1a3.003 3.003 0 0 1-2.379 3.523L18.15 108.967a3.004 3.004 0 0 1-3.525-2.38L.66 34.756z"/>
            <path d="M2.133 34.469l13.963 71.833c.16.82.948 1.351 1.767 1.192l53.209-10.343c.82-.159 1.351-.947 1.192-1.764L61.241 38.68c0-.003-12.613 2.443-12.613 2.443a3.509 3.509 0 0 1-4.11-2.773l-2.557-13.158c0-.003-38.645 7.51-38.645 7.51a1.5 1.5 0 0 0-1.183 1.767zm-1.472.286A3 3 0 0 1 3.03 31.23l38.635-7.51a1.5 1.5 0 0 1 1.768 1.185l2.558 13.158a2.009 2.009 0 0 0 2.351 1.587l12.603-2.45a1.51 1.51 0 0 1 1.769 1.194L73.737 95.1a3.003 3.003 0 0 1-2.379 3.523L18.15 108.967a3.004 3.004 0 0 1-3.525-2.38L.66 34.756z"/>
        </g>
        <path d="M40.205 80.391c6.826-1.327 11.286-7.934 9.96-14.758-1.327-6.824-7.937-11.28-14.764-9.953-6.827 1.327-11.286 7.934-9.96 14.759 1.327 6.824 7.937 11.28 14.764 9.952zm-.573-2.944c-5.2 1.01-10.236-2.384-11.246-7.58-1.01-5.198 2.387-10.231 7.588-11.242 5.2-1.011 10.235 2.383 11.245 7.58 1.01 5.198-2.386 10.23-7.587 11.242z" fill="#B8E5FF"/>
        <g>
            <g fill="#F0F0EC">
                <path d="M79.46 3.756v73.178c0 .836.672 1.508 1.507 1.508h54.204c.835 0 1.507-.672 1.507-1.504v-57.77c0-.442-.319-1.23-.626-1.549L121.795 2.875c-.294-.304-1.053-.626-1.48-.626H80.959a1.5 1.5 0 0 0-1.498 1.507zm-1.5 0A3 3 0 0 1 80.958.75h39.358c.834 0 1.981.488 2.557 1.083l14.257 14.744c.58.599 1.048 1.762 1.048 2.593v57.769a3.003 3.003 0 0 1-3.007 3.004H80.967a3.004 3.004 0 0 1-3.007-3.008V3.756z"/>
                <path d="M79.46 3.756v73.178c0 .836.672 1.508 1.507 1.508h54.204c.835 0 1.507-.672 1.507-1.504v-57.77c0-.003-12.847-.008-12.847-.008a3.509 3.509 0 0 1-3.505-3.506V2.25c0-.003-39.368-.001-39.368-.001a1.5 1.5 0 0 0-1.498 1.507zm-1.5 0A3 3 0 0 1 80.958.75h39.358a1.5 1.5 0 0 1 1.51 1.5v13.405c0 1.108.902 2.006 2.005 2.006h12.838c.834 0 1.51.678 1.51 1.509v57.769a3.003 3.003 0 0 1-3.008 3.004H80.967a3.004 3.004 0 0 1-3.007-3.008V3.756z"/>
            </g>
            <path d="M117.835 51.576h-18.17l9.085-14.711 9.085 14.711zm5.379 3L108.75 31.155 94.287 54.576h28.927z" fill="#80C772"/>
        </g>
    </g>
</svg>
