<svg width="166" height="87" viewBox="0 0 166 87" xmlns="http://www.w3.org/2000/svg">
    <title>
        start
    </title>
    <g fill="none" fill-rule="evenodd">
        <g fill="#F0F0EC">
            <path d="M112.018 3.679L98.43 73.588a1.502 1.502 0 0 0 1.192 1.763l52.013 10.11c.82.16 1.606-.368 1.763-1.176l10.732-55.207c.083-.431-.08-1.259-.322-1.63l-10.93-16.72c-.239-.364-.911-.816-1.333-.898l-37.762-7.34a1.497 1.497 0 0 0-1.765 1.189zm-1.472-.286a2.997 2.997 0 0 1 3.523-2.375l37.762 7.34c.816.159 1.84.842 2.302 1.55l10.93 16.72c.456.697.697 1.921.539 2.736L154.871 84.57a2.997 2.997 0 0 1-3.523 2.363l-52.012-10.11a3.002 3.002 0 0 1-2.379-3.523l13.589-69.908z"/>
            <path d="M113.783 2.49a1.497 1.497 0 0 0-1.765 1.189L98.43 73.588a1.502 1.502 0 0 0 1.192 1.763l52.013 10.11c.82.16 1.606-.368 1.763-1.176l10.732-55.207-12.295-2.392a3.502 3.502 0 0 1-2.764-4.108L151.55 9.83l-37.766-7.34zm-3.237.903a2.997 2.997 0 0 1 3.523-2.375l37.762 7.34c.816.159 1.35.942 1.192 1.752l-2.48 12.754a2.002 2.002 0 0 0 1.578 2.35l12.288 2.388a1.504 1.504 0 0 1 1.193 1.762L154.871 84.57a2.997 2.997 0 0 1-3.523 2.363l-52.012-10.11a3.002 3.002 0 0 1-2.379-3.523l13.589-69.908z"/>
        </g>
        <path d="M142.528 58.562l-3.518 2.373.573-2.945 2.945.572zm-21.441-4.168l18.496 3.596 3.57-18.368-18.496-3.595-3.57 18.367zm1.198-21.885l24.386 4.74-4.716 24.258-24.385-4.74 4.715-24.258z" fill="#F58D24"/>
        <g fill="#F0F0EC">
            <path d="M2.166 14.364l13.589 69.908a1.502 1.502 0 0 0 1.766 1.189l52.013-10.11a1.497 1.497 0 0 0 1.194-1.752L59.997 18.392c-.084-.43-.545-1.137-.909-1.39L42.691 5.594c-.358-.249-1.15-.416-1.573-.334L3.356 12.6c-.823.16-1.35.944-1.19 1.764zm-1.473.286a2.997 2.997 0 0 1 2.377-3.522l37.762-7.34c.816-.159 2.022.092 2.715.574L59.945 15.77c.684.476 1.366 1.521 1.524 2.335l10.732 55.208a2.997 2.997 0 0 1-2.381 3.51l-52.013 10.11a3.002 3.002 0 0 1-3.525-2.375L.693 14.65z"/>
            <path d="M41.121 5.252l.002.006-.002-.006zM3.356 12.601c-.823.16-1.35.943-1.19 1.763l13.589 69.908a1.502 1.502 0 0 0 1.766 1.189l52.013-10.11a1.497 1.497 0 0 0 1.194-1.752L59.997 18.392 47.702 20.78a3.502 3.502 0 0 1-4.101-2.774L41.123 5.258 3.356 12.601zM.693 14.65a2.997 2.997 0 0 1 2.377-3.522l37.762-7.34a1.498 1.498 0 0 1 1.762 1.178l2.479 12.754a2.002 2.002 0 0 0 2.343 1.588l12.287-2.389a1.504 1.504 0 0 1 1.766 1.186l10.732 55.208a2.997 2.997 0 0 1-2.381 3.51l-52.013 10.11a3.002 3.002 0 0 1-3.525-2.375L.693 14.65z"/>
        </g>
        <path d="M39.384 59.093c6.704-1.303 11.09-7.77 9.792-14.445-1.297-6.677-7.786-11.029-14.49-9.726-6.704 1.303-11.09 7.77-9.792 14.446s7.787 11.028 14.49 9.725zm-.572-2.945c-5.08.987-9.992-2.307-10.973-7.353-.981-5.046 2.339-9.94 7.42-10.928 5.08-.987 9.992 2.307 10.973 7.353.98 5.046-2.34 9.94-7.42 10.928z" fill="#B8E5FF"/>
        <g>
            <path d="M55.078 3.734A2.997 2.997 0 0 1 58.083.73h38.469c.83 0 1.966.476 2.555 1.082l13.92 14.327c.58.598 1.05 1.754 1.05 2.583v56.241a2.997 2.997 0 0 1-3.006 2.991H58.085a3.002 3.002 0 0 1-3.007-3.003V3.734z" fill="#FFF"/>
            <path d="M56.578 3.734V74.95c0 .832.672 1.503 1.507 1.503h52.986c.836 0 1.507-.668 1.507-1.49V18.721c0-.438-.318-1.22-.627-1.538L98.03 2.857c-.303-.312-1.05-.627-1.48-.627H58.084c-.839 0-1.505.668-1.505 1.504zm-1.5 0A2.997 2.997 0 0 1 58.083.73h38.469c.83 0 1.966.476 2.555 1.082l13.92 14.327c.58.598 1.05 1.754 1.05 2.583v56.241a2.997 2.997 0 0 1-3.006 2.991H58.085a3.002 3.002 0 0 1-3.007-3.003V3.734z" fill="#F0F0EC"/>
            <path d="M96.556 2.223v.006-.006zm-38.473.007c-.839 0-1.505.668-1.505 1.504V74.95c0 .832.672 1.503 1.507 1.503h52.986c.836 0 1.507-.668 1.507-1.49V18.721l-12.525-.001a3.502 3.502 0 0 1-3.497-3.506V2.23l-38.473.001zm-3.005 1.504A2.997 2.997 0 0 1 58.083.73h38.469c.83 0 1.504.667 1.504 1.493v12.992c0 1.108.896 2.006 1.997 2.006h12.517c.833 0 1.508.672 1.508 1.501v56.241a2.997 2.997 0 0 1-3.007 2.991H58.085a3.002 3.002 0 0 1-3.007-3.003V3.734z" fill="#F0F0EC"/>
            <path d="M94.085 50.257h-17.68l8.84-14.248 8.84 14.248zm5.392 3L85.245 30.319 71.013 53.257h28.464z" fill="#80C772"/>
        </g>
    </g>
</svg>
