<svg width="140" height="132" viewBox="0 0 140 132" xmlns="http://www.w3.org/2000/svg">
    <title>
        success
    </title>
    <g fill="none" fill-rule="evenodd">
        <g transform="rotate(54 71.558 53.327)">
            <ellipse fill="#F58D24" transform="rotate(178 57.63 36.047)" cx="57.629" cy="36.047" rx="8.442" ry="8.432"/>
            <ellipse fill="#1D8CF8" opacity=".714" transform="rotate(178 3.95 61.126)" cx="3.951" cy="61.126" rx="3.015" ry="3.011"/>
            <path d="M114.07 53.52a1.791 1.791 0 1 0 1.225 3.367 1.791 1.791 0 0 0-1.224-3.367zm-4.557-.196a1.791 1.791 0 1 0-1.516 3.246 1.791 1.791 0 0 0 1.516-3.246zm-3.08-3.359a1.791 1.791 0 1 0-3.368 1.224 1.791 1.791 0 0 0 3.367-1.224zm.2-4.553a1.791 1.791 0 1 0-3.246-1.515 1.791 1.791 0 0 0 3.246 1.515zm3.366-3.08a1.791 1.791 0 1 0-1.224-3.367 1.791 1.791 0 0 0 1.224 3.367zm4.558.197a1.791 1.791 0 1 0 1.515-3.247 1.791 1.791 0 0 0-1.515 3.247zm5.376 4.43a1.791 1.791 0 1 0-1.227-3.367 1.791 1.791 0 0 0 1.227 3.367zm-2.497 3.48a1.791 1.791 0 1 0 3.247 1.516 1.791 1.791 0 0 0-3.247-1.515zM111.433 118.434a1.434 1.434 0 1 0 2.696-.982 1.434 1.434 0 0 0-2.696.982zm-4.24-1.282a1.434 1.434 0 1 0 2.6 1.21 1.434 1.434 0 0 0-2.6-1.21zm-.252-3.045a1.434 1.434 0 1 0-2.696.98 1.434 1.434 0 0 0 2.696-.98zm-.552-5.096a1.434 1.434 0 1 0-1.211 2.6 1.434 1.434 0 0 0 1.211-2.6zm3.05-.25a1.434 1.434 0 1 0-.98-2.697 1.434 1.434 0 0 0 .98 2.697zm5.1-.556a1.434 1.434 0 1 0-2.601-1.211 1.434 1.434 0 0 0 2.6 1.211zm.25 3.045a1.434 1.434 0 1 0 2.696-.98 1.434 1.434 0 0 0-2.696.98zm.552 5.095a1.434 1.434 0 1 0 1.212-2.6 1.434 1.434 0 0 0-1.212 2.6z" fill="#F8312A"/>
            <path fill="#F58D24" d="M135.91 98.7l-5.554.096-.097-5.548 5.554-.097z"/>
            <path fill="#80C772" d="M49.642 116.271l-4.54 5.811-5.803-4.534 4.54-5.811zM139.277 26.691l-2.655 8.172 8.188 2.66 2.656-8.171-8.189-2.661zm-1.926-3.78l13.895 4.514-4.51 13.879-13.894-4.515 4.51-13.878z"/>
            <path fill="#BA7CF8" d="M42.123 5.725l4.588 1.491-1.489 4.582-4.587-1.49z"/>
            <path d="M81.815 109.987a5.834 5.834 0 0 0-5.632 6.03 5.834 5.834 0 0 0 6.039 5.622 5.834 5.834 0 0 0 5.632-6.03 5.834 5.834 0 0 0-6.04-5.622zm-.07-1.999c4.327-.15 7.957 3.23 8.108 7.552.15 4.321-3.235 7.947-7.561 8.098-4.327.151-7.957-3.23-8.108-7.551-.15-4.322 3.234-7.948 7.561-8.099z" fill="#1D8CF8"/>
            <path d="M15.777 79.843c-4.935.173-8.797 4.309-8.625 9.239.172 4.93 4.313 8.787 9.248 8.615 4.936-.173 8.797-4.309 8.625-9.24-.172-4.93-4.313-8.786-9.248-8.614zm.035 1c4.384-.153 8.06 3.272 8.214 7.65.153 4.378-3.277 8.051-7.66 8.204-4.384.153-8.062-3.272-8.214-7.65-.153-4.378 3.276-8.051 7.66-8.204z" fill="#F8312A"/>
            <ellipse fill="#FF3" transform="rotate(178 122.837 15.674)" cx="122.837" cy="15.674" rx="2.412" ry="2.409"/>
            <path d="M28.403 47.173a3.513 3.513 0 0 0 3.635 3.387 3.513 3.513 0 0 0 3.39-3.632 3.513 3.513 0 0 0-3.635-3.387 3.513 3.513 0 0 0-3.39 3.632zm6.026-.21a2.513 2.513 0 0 1-2.425 2.597 2.513 2.513 0 0 1-2.602-2.422 2.513 2.513 0 0 1 2.426-2.598 2.513 2.513 0 0 1 2.601 2.422z" fill="#80C772"/>
            <path d="M90.256.876c-5.6.196-9.983 4.89-9.788 10.485.196 5.595 4.895 9.972 10.496 9.776 5.601-.195 9.983-4.89 9.788-10.484C100.557 5.058 95.857.68 90.256.876zm.035 1c5.05-.176 9.286 3.769 9.462 8.812.176 5.042-3.775 9.274-8.824 9.45-5.05.176-9.285-3.769-9.461-8.812-.176-5.043 3.774-9.274 8.823-9.45z" fill="#1D8CF8"/>
            <path d="M140.261 69.085l-2.968 3.077a.958.958 0 0 1-1.356.024.961.961 0 0 1-.024-1.358l2.968-3.078-3.178-3.072a.961.961 0 0 1-.023-1.358.958.958 0 0 1 1.356-.024l3.178 3.073 3.069-3.182a.958.958 0 0 1 1.356-.023.961.961 0 0 1 .024 1.358l-3.069 3.181 3.074 2.972a.961.961 0 0 1 .024 1.358.958.958 0 0 1-1.357.024l-3.074-2.972z" fill="#BA7CF8"/>
            <path d="M69.296 104.987l-.973-9.207a1.338 1.338 0 0 0-2.66.279l.973 9.207a1.338 1.338 0 0 0 2.66-.28zm-.995.105a.336.336 0 0 1-.299.37.338.338 0 0 1-.371-.301l-.973-9.207a.336.336 0 0 1 .299-.37.338.338 0 0 1 .371.3l.973 9.208zm3.587-6.311l-9.209.962a1.336 1.336 0 1 0 .28 2.66l9.208-.962a1.336 1.336 0 1 0-.28-2.66zm.104.995a.338.338 0 0 1 .37.3.336.336 0 0 1-.298.37l-9.209.962a.338.338 0 0 1-.371-.3.336.336 0 0 1 .3-.37l9.208-.962z" fill="#FF3"/>
            <path d="M48.62 89.883L42.376 73.64a2.076 2.076 0 0 0-2.68-1.193 2.071 2.071 0 0 0-1.192 2.678l6.246 16.243a2.076 2.076 0 0 0 2.68 1.193 2.071 2.071 0 0 0 1.192-2.678zm-13.995-6.048a2.071 2.071 0 0 0-1.193 2.678 2.076 2.076 0 0 0 2.68 1.193l16.25-6.227a2.071 2.071 0 0 0 1.193-2.678 2.076 2.076 0 0 0-2.68-1.193l-16.25 6.227z" fill="#BA7CF8"/>
        </g>
        <path d="M41 35.004A2.997 2.997 0 0 1 44.005 32h38.469c.83 0 1.967.476 2.556 1.082l13.919 14.327c.58.597 1.051 1.754 1.051 2.583v56.241a2.997 2.997 0 0 1-3.007 2.991H44.007A3.002 3.002 0 0 1 41 106.221V35.004z" fill="#FFF"/>
        <path d="M42.5 35.004v71.217c0 .832.672 1.503 1.507 1.503h52.986c.836 0 1.507-.668 1.507-1.49V49.991c0-.438-.318-1.22-.627-1.538l-13.92-14.327c-.303-.312-1.049-.627-1.479-.627H44.005c-.838 0-1.505.668-1.505 1.504zm-1.5 0A2.997 2.997 0 0 1 44.005 32h38.469c.83 0 1.967.476 2.556 1.082l13.919 14.327c.58.597 1.051 1.754 1.051 2.583v56.241a2.997 2.997 0 0 1-3.007 2.991H44.007A3.002 3.002 0 0 1 41 106.221V35.004z" fill="#F0F0EC"/>
        <path d="M82.478 33.493v.005-.005zm-38.473.007c-.838 0-1.505.668-1.505 1.504v71.217c0 .832.672 1.503 1.507 1.503h52.986c.836 0 1.507-.668 1.507-1.49V49.991l-12.525-.001a3.502 3.502 0 0 1-3.497-3.506V33.498c0 .002-38.473.002-38.473.002zM41 35.004A2.997 2.997 0 0 1 44.005 32h38.469c.83 0 1.504.667 1.504 1.493v12.992c0 1.108.896 2.006 1.997 2.006h12.518c.832 0 1.507.672 1.507 1.501v56.241a2.997 2.997 0 0 1-3.007 2.991H44.007A3.002 3.002 0 0 1 41 106.221V35.004z" fill="#F0F0EC"/>
        <path fill="#80C772" d="M57.963 73.472l-2.084 2.158 9.171 8.857 18.108-18.751L81 63.652 64.976 80.245z"/>
    </g>
</svg>
